<svg xmlns="http://www.w3.org/2000/svg" viewBox="0 0 512 512">
  <defs>
    <linearGradient id="grad" x1="0%" y1="0%" x2="100%" y2="100%">
      <stop offset="0%" stop-color="#4f46e5"/>
      <stop offset="100%" stop-color="#0f766e"/>
    </linearGradient>
  </defs>
  <rect width="512" height="512" rx="96" fill="url(#grad)" />
  <path d="M150 150h212a4 4 0 0 1 4 4v212a4 4 0 0 1-4 4H150a4 4 0 0 1-4-4V154a4 4 0 0 1 4-4z" fill="#0f172a" opacity="0.12"/>
  <path d="M156 156h200v200H156z" fill="#0f172a" opacity="0.2"/>
  <path d="M168 168h176v176H168z" fill="none" stroke="#e2e8f0" stroke-width="24" stroke-linecap="round" stroke-linejoin="round"/>
  <path d="M210 240c0-27 22-55 55-55s55 28 55 55-22 55-55 55-55-28-55-55Zm13 0c0 14 10 25 25 25s25-11 25-25-10-25-25-25-25 11-25 25Z" fill="#e2e8f0"/>
</svg>
